<svg width="24" height="24" viewBox="0 0 24 24" fill="none" xmlns="http://www.w3.org/2000/svg">
<path d="M12 2C6.47715 2 2 6.47715 2 12C2 14.663 3.04094 17.0829 4.73812 18.875L2.72681 21.1705C2.44361 21.4937 2.67314 22 3.10288 22H12C16.9118 22 20.9965 18.4587 21.8402 13.79" stroke="white" stroke-width="1.5" stroke-linecap="round" stroke-linejoin="round"/>
<path d="M19 6V4C19 3.46957 18.7893 2.96086 18.4142 2.58579C18.0391 2.21071 17.5304 2 17 2C16.4696 2 15.9609 2.21071 15.5858 2.58579C15.2107 2.96086 15 3.46957 15 4V6" stroke="white" stroke-width="1.5" stroke-linecap="round" stroke-linejoin="round"/>
<path d="M20 6H14C13.4477 6 13 6.44772 13 7V10C13 10.5523 13.4477 11 14 11H20C20.5523 11 21 10.5523 21 10V7C21 6.44772 20.5523 6 20 6Z" stroke="white" stroke-width="1.5" stroke-linecap="round" stroke-linejoin="round"/>
</svg>
